@startuml VerViajes
    [*] --> VerViajes
note on link
 <b> Gestion/Trabjador desea ver todos los viajes
end note

State VerViajes{

    State StateEntraEnViajes as "EntraEnViajes"
    State StateObservaViajes as "ObservaViajes"

    StateEntraEnViajes --> StateObservaViajes 
    StateObservaViajes --> [*]
 note on link
 <b> Gestion observa todos los viajes, que se han realizado
 <b> y que estan realizandose. Trabajador observa los viajes
 <b> realizados y planificados.
end note

}

@enduml
